<svg width="283" height="119" viewBox="0 0 283 119" fill="none" xmlns="http://www.w3.org/2000/svg">
<g opacity="0.7" filter="url(#filter0_d_1_1600)">
<path d="M41.1288 110.029L263.555 110.029C271.504 110.029 277.948 103.585 277.948 95.636L277.948 36.8832C277.948 33.1257 276.479 29.5173 273.854 26.8286L253.564 6.04527C250.856 3.27087 247.142 1.70656 243.265 1.70656L19.3073 1.70655C11.3582 1.70655 4.91409 8.15061 4.91409 16.0998L4.91409 72.7795C4.91409 76.4814 6.34045 80.041 8.89679 82.7186L30.7182 105.575C33.4341 108.42 37.1958 110.029 41.1288 110.029Z" stroke="url(#paint0_linear_1_1600)" stroke-width="1.69332" shape-rendering="crispEdges"/>
</g>
<defs>
<filter id="filter0_d_1_1600" x="0.0673828" y="0.859863" width="282.728" height="118.016" filterUnits="userSpaceOnUse" color-interpolation-filters="sRGB">
<feFlood flood-opacity="0" result="BackgroundImageFix"/>
<feColorMatrix in="SourceAlpha" type="matrix" values="0 0 0 0 0 0 0 0 0 0 0 0 0 0 0 0 0 0 127 0" result="hardAlpha"/>
<feOffset dy="4"/>
<feGaussianBlur stdDeviation="2"/>
<feComposite in2="hardAlpha" operator="out"/>
<feColorMatrix type="matrix" values="0 0 0 0 0 0 0 0 0 0 0 0 0 0 0 0 0 0 0.25 0"/>
<feBlend mode="normal" in2="BackgroundImageFix" result="effect1_dropShadow_1_1600"/>
<feBlend mode="normal" in="SourceGraphic" in2="effect1_dropShadow_1_1600" result="shape"/>
</filter>
<linearGradient id="paint0_linear_1_1600" x1="277.102" y1="-3.03042" x2="5.76074" y2="-3.03044" gradientUnits="userSpaceOnUse">
<stop stop-color="#8F5CFF"/>
<stop offset="1" stop-color="#7232FF"/>
</linearGradient>
</defs>
</svg>
