<svg width="208" height="89" viewBox="0 0 208 89" fill="none" xmlns="http://www.w3.org/2000/svg">
<path d="M86.2829 8.9786C85.6571 8.28334 85.0314 7.58808 84.3361 6.89283C79.817 2.65175 73.6987 0.00976562 66.9547 0.00976562C59.5849 0.00976562 52.9105 3.20796 48.2522 8.28334C47.6265 8.9786 47.0008 9.74339 46.4446 10.5082C43.594 14.4711 41.7863 19.1989 41.5777 24.4133C41.5777 24.761 41.6473 25.1086 41.6473 25.5258C41.6473 25.8734 41.6473 26.2905 41.5777 26.6382C41.4387 28.9325 40.813 31.0183 39.7701 32.965C38.3796 35.607 36.2243 37.8318 33.5823 39.2919V49.8598C37.8929 48.4693 41.7168 46.0359 44.6369 42.7682C45.2626 42.0729 45.8884 41.3081 46.4446 40.5433C49.2951 36.5804 51.1028 31.8526 51.3114 26.6382C51.3114 26.2905 51.2418 25.8734 51.2418 25.5258C51.2418 25.1781 51.2418 24.761 51.3114 24.4133C51.4504 22.119 52.0761 19.9637 53.119 18.0865C55.761 13.1502 60.9755 9.81291 66.9547 9.81291C72.5168 9.81291 77.3836 12.6635 80.1646 17.0436C81.7637 19.477 82.6675 22.3971 82.6675 25.5258C82.6675 27.1248 82.3894 28.7239 81.9723 30.184C79.956 36.5804 73.9768 41.2386 66.9547 41.2386C60.9755 41.2386 55.761 37.9013 53.119 32.965C52.1457 36.5804 50.4771 39.8481 48.2522 42.7682C52.9105 47.8436 59.5849 50.9722 66.9547 50.9722C74.1854 50.9722 80.7208 47.9131 85.379 43.1158C86.3524 42.1424 87.1867 41.03 87.9515 39.9176C88.1601 39.57 88.4382 39.2223 88.6468 38.8747C89.1334 38.0404 89.6201 37.2061 89.9677 36.3718C91.4973 33.1041 92.3316 29.4192 92.3316 25.5953C92.4011 19.1989 90.1068 13.4283 86.2829 8.9786Z" fill="white"/>
<path d="M25.8674 32.3393C23.1559 32.3393 21.0006 34.4946 21.0006 37.2061V37.4842V40.4738C20.0272 40.1262 19.1234 39.7786 18.2195 39.2224C13.4222 36.5109 10.1545 31.3659 10.1545 25.5258C10.1545 16.835 17.1766 9.81292 25.8674 9.81292C31.8466 9.81292 37.061 13.1502 39.703 18.0865C40.6764 14.4711 42.345 11.2034 44.5698 8.28335C39.9116 3.20796 33.2371 0.00976562 25.8674 0.00976562C11.8231 0.00976562 0.420898 11.412 0.420898 25.4562C0.420898 36.789 7.92969 46.4531 18.2195 49.7208C19.1234 49.9989 20.0272 50.277 21.0006 50.416V51.6675C21.0006 52.2237 21.0701 52.7799 21.2787 53.3361C21.9739 55.2133 23.7121 56.5343 25.8674 56.5343C28.0227 56.5343 29.7608 55.2133 30.4561 53.3361C30.6647 52.8494 30.7342 52.2932 30.7342 51.6675V50.416V40.4738V37.4842V37.2061C30.7342 34.4946 28.5789 32.3393 25.8674 32.3393Z" fill="#9E7F7F"/>
<path d="M122.443 42.834C124.042 44.6416 124.112 47.2836 122.652 49.0913C122.304 48.257 122.165 47.3531 122.165 46.3798V42.4863C122.235 42.6254 122.374 42.7644 122.443 42.834Z" fill="#1D1D1D"/>
<path d="M166.379 16.6264C166.24 15.9312 166.101 15.2359 165.823 14.5407C165.614 13.8454 165.406 13.2197 165.058 12.5244C164.502 11.2034 163.807 9.95196 163.042 8.83955C162.972 8.77002 162.972 8.7005 162.903 8.63097C162.416 7.93571 161.86 7.24045 161.234 6.61472C161.165 6.5452 161.165 6.5452 161.095 6.47567C157.341 2.5127 151.987 0.00976562 146.078 0.00976562C142.879 0.00976562 139.89 0.705025 137.248 2.02602C136.413 2.44317 135.649 2.86033 134.884 3.34701L134.814 3.41653C130.782 6.05852 127.653 10.2301 126.332 15.0969C125.845 16.835 125.567 18.7122 125.567 20.5894V31.2964V46.3835C125.567 47.4264 125.915 48.3998 126.471 49.2341C127.375 50.4855 128.766 51.2503 130.434 51.2503C133.146 51.2503 135.301 49.095 135.301 46.3835V41.0995V38.0404C136.135 38.5966 137.039 39.0138 137.943 39.4309C140.446 40.5433 143.227 41.1691 146.147 41.1691C150.04 41.1691 153.725 40.0567 156.784 38.1795C156.854 38.1795 156.924 38.1099 156.924 38.1099C157.688 37.6233 158.384 37.1366 159.079 36.5804C159.148 36.5108 159.148 36.5108 159.218 36.4413C161.79 34.286 163.876 31.505 165.128 28.3763C165.197 28.1677 165.267 27.9592 165.406 27.7506C165.545 27.4725 165.614 27.1944 165.684 26.8467C165.892 26.2905 166.031 25.6648 166.17 25.1086C166.24 24.8305 166.31 24.4829 166.379 24.2048C166.449 23.6486 166.588 23.0923 166.588 22.5361C166.657 21.9104 166.657 21.2847 166.657 20.5894C166.796 19.2684 166.657 17.8779 166.379 16.6264ZM156.784 22.7447C156.367 24.6914 155.464 26.4991 154.143 27.8896C154.073 27.9592 154.003 28.0287 153.934 28.0982C153.586 28.5154 153.169 28.863 152.752 29.1411C152.335 29.4887 151.918 29.7668 151.501 29.9754C149.971 30.8097 148.163 31.3659 146.286 31.3659C143.018 31.3659 140.098 29.9059 138.082 27.6115C136.483 25.7343 135.44 23.3009 135.44 20.5894C135.44 17.8779 136.413 15.4445 138.082 13.5673C140.029 11.273 143.018 9.81291 146.286 9.81291C148.302 9.81291 150.18 10.3691 151.779 11.3425C153.447 12.3158 154.768 13.7759 155.672 15.4445C155.742 15.514 155.742 15.6531 155.811 15.7226C156.576 17.1827 156.993 18.8513 156.993 20.5894C156.993 20.8675 156.993 21.0761 156.993 21.3542C156.993 21.5628 156.924 21.7714 156.924 21.9799C156.924 21.9799 156.924 21.9799 156.924 22.0495C156.854 22.3276 156.854 22.5361 156.784 22.7447Z" fill="white"/>
<path d="M103.169 9.81253C109.148 9.81253 113.946 14.6098 113.946 20.589C113.946 24.7606 111.512 28.4455 108.036 30.1836C110.887 31.2265 114.293 32.7561 117.7 35.0504C119.577 33.1732 121.107 30.8789 122.15 28.4455C122.497 27.6807 122.775 26.8464 122.984 26.0816C123.471 24.3434 123.749 22.5358 123.749 20.6586C123.749 18.7814 123.471 16.9042 122.984 15.166C122.775 14.3317 122.497 13.5669 122.15 12.8021C119.091 5.36288 111.721 0.148438 103.239 0.148438C97.2594 0.148438 91.8364 2.72089 88.082 6.82292C90.4459 9.4649 92.3231 12.524 93.5051 15.9308C95.2432 12.3155 98.9281 9.81253 103.169 9.81253Z" fill="white"/>
<path d="M122.08 42.4914C120.759 41.0314 119.299 39.7104 117.839 38.598C117.074 37.9723 116.24 37.4161 115.475 36.9294C109.774 33.175 104.073 31.7149 101.64 31.2282C101.64 31.2282 101.64 31.2282 101.57 31.2282C101.223 31.1587 100.944 31.0892 100.736 31.0892C100.666 31.0892 100.666 31.0892 100.666 31.0892C99.0672 30.7416 97.6767 29.9768 96.4253 29.0034C95.9386 28.6558 95.5214 28.1691 95.1043 27.752C95.0347 28.5167 94.9652 29.351 94.8262 30.1158C94.409 32.8273 93.5747 35.3998 92.3928 37.8332C92.3928 37.9027 92.3232 37.9723 92.3232 38.0418C92.3928 38.1113 92.4623 38.1113 92.5318 38.1808C92.8099 38.3199 93.0185 38.4589 93.2966 38.598C94.5481 39.2933 95.9386 39.919 97.3986 40.3361C97.8158 40.4752 98.3025 40.6142 98.7196 40.6838C98.8587 40.7533 98.9977 40.7533 99.1368 40.7533C99.1368 40.7533 99.2758 40.7533 99.4149 40.8228C99.4844 40.8228 99.4844 40.8228 99.5539 40.8228C99.693 40.8923 99.832 40.8923 99.9711 40.8923C101.362 41.1705 104.212 41.9352 107.48 43.5343C110.122 44.8553 112.903 46.7325 115.267 49.3745C116.24 50.4174 117.561 50.9736 118.882 50.9736C120.064 50.9736 121.176 50.5564 122.15 49.7221C122.358 49.5136 122.567 49.305 122.706 49.0964C124.166 47.2887 124.166 44.6467 122.497 42.8391C122.358 42.7695 122.219 42.6305 122.08 42.4914Z" fill="white"/>
<path d="M92.3953 41.2402C91.4915 41.2402 90.6572 41.4488 89.8924 41.866C88.8495 42.4917 88.0847 43.3955 87.7371 44.508C87.598 44.9946 87.459 45.4813 87.459 46.0375C87.459 48.749 89.6143 50.9043 92.3258 50.9043C95.0373 50.9043 97.1926 48.749 97.1926 46.0375C97.1926 44.7165 96.6364 43.5346 95.8021 42.6308C94.9678 41.7964 93.7858 41.2402 92.3953 41.2402Z" fill="white"/>
<path d="M182.151 0.00976562C175.546 0.00976562 169.497 2.5127 164.978 6.68425C164.978 6.75378 165.047 6.75377 165.117 6.8233C167.203 9.60433 168.593 12.9416 169.219 16.4874C172.069 12.3854 176.797 9.67386 182.151 9.67386C190.841 9.67386 197.864 16.696 197.864 25.3867C197.864 34.0774 190.841 41.0996 182.151 41.0996C175.268 41.0996 169.427 36.7194 167.342 30.5316C165.812 33.7298 163.518 36.5804 160.737 38.8052C160.667 38.8052 160.667 38.8747 160.598 38.8747C165.117 46.0359 173.112 50.8332 182.151 50.8332C196.195 50.8332 207.597 39.4309 207.597 25.3867C207.597 11.412 196.125 0.00976562 182.151 0.00976562Z" fill="white"/>
<path d="M63.3418 19.1211V31.7053L74.2574 25.4479L63.3418 19.1211Z" fill="#9E7F7F"/>
<rect x="105.679" y="61.9785" width="101.094" height="26.2643" rx="3.52278" fill="#9E7F7F"/>
<path d="M117.563 69.4434C117.533 69.373 117.519 69.2939 117.519 69.2061C117.519 69.1123 117.568 69.0068 117.668 68.8896C117.774 68.7666 117.929 68.7051 118.134 68.7051H120.059C120.287 68.7051 120.498 68.7842 120.692 68.9424C120.885 69.1006 121.023 69.2998 121.105 69.54L123.425 76.501L125.569 69.54C125.739 68.9834 126.088 68.7051 126.615 68.7051H128.233C128.76 68.7051 129.109 68.9834 129.278 69.54L131.423 76.501L133.743 69.54C133.825 69.2998 133.963 69.1006 134.156 68.9424C134.35 68.7842 134.561 68.7051 134.789 68.7051H136.714C136.913 68.7051 137.063 68.7666 137.162 68.8896C137.268 69.0068 137.32 69.1123 137.32 69.2061C137.32 69.2939 137.309 69.373 137.285 69.4434L133.365 80.4121C133.149 81.0098 132.727 81.3086 132.1 81.3086H130.825C130.175 81.3086 129.756 81.0098 129.568 80.4121L127.424 73.6445L125.279 80.4121C125.086 81.0098 124.667 81.3086 124.023 81.3086H122.739C122.118 81.3086 121.699 81.0098 121.483 80.4121L117.563 69.4434ZM150.126 80.0078C148.931 81.0566 147.173 81.5811 144.853 81.5811C142.538 81.5811 140.78 81.0566 139.579 80.0078C138.378 78.9531 137.777 77.2861 137.777 75.0068C137.777 72.7275 138.378 71.0635 139.579 70.0146C140.78 68.9658 142.538 68.4414 144.853 68.4414C147.173 68.4414 148.931 68.9658 150.126 70.0146C151.327 71.0635 151.928 72.7275 151.928 75.0068C151.928 77.2861 151.327 78.9531 150.126 80.0078ZM147.727 71.8691C147.135 71.166 146.177 70.8145 144.853 70.8145C143.534 70.8145 142.576 71.166 141.979 71.8691C141.387 72.5723 141.091 73.6211 141.091 75.0156C141.091 76.4043 141.387 77.4502 141.979 78.1533C142.576 78.8506 143.534 79.1992 144.853 79.1992C146.177 79.1992 147.135 78.8506 147.727 78.1533C148.318 77.4502 148.614 76.4043 148.614 75.0156C148.614 73.6211 148.318 72.5723 147.727 71.8691ZM166.825 80.9307C166.825 81.1826 166.676 81.3086 166.377 81.3086H164.268C164.045 81.3086 163.799 81.2295 163.529 81.0713C163.266 80.9072 163.064 80.7109 162.923 80.4824L161.429 78.1445C160.814 77.1836 160.069 76.7031 159.196 76.7031H157.052V80.4824C157.052 80.7109 156.97 80.9072 156.806 81.0713C156.648 81.2295 156.454 81.3086 156.226 81.3086H154.573C154.345 81.3086 154.149 81.2295 153.985 81.0713C153.82 80.9072 153.738 80.7109 153.738 80.4824V69.54C153.738 69.3115 153.818 69.1152 153.976 68.9512C154.134 68.7871 154.327 68.7051 154.556 68.7051H161.807C163.149 68.7051 164.247 69.0654 165.103 69.7861C165.964 70.5068 166.395 71.4795 166.395 72.7041C166.395 74.4092 165.29 75.4785 163.081 75.9121C163.433 76.041 163.758 76.2637 164.057 76.5801C164.356 76.8906 164.698 77.3447 165.085 77.9424L166.685 80.4824C166.778 80.6465 166.825 80.7959 166.825 80.9307ZM157.052 74.2158H160.796C161.4 74.2158 161.93 74.0957 162.387 73.8555C162.85 73.6152 163.081 73.2314 163.081 72.7041C163.081 72.1768 162.85 71.793 162.387 71.5527C161.93 71.3125 161.4 71.1924 160.796 71.1924H157.052V74.2158ZM168.293 80.5V69.5576C168.293 69.3174 168.375 69.1152 168.539 68.9512C168.703 68.7871 168.9 68.7051 169.128 68.7051H170.78C171.009 68.7051 171.202 68.7871 171.36 68.9512C171.525 69.1152 171.607 69.3174 171.607 69.5576V78.8213H179.262C179.49 78.8213 179.684 78.9033 179.842 79.0674C180.006 79.2314 180.088 79.4277 180.088 79.6562V80.4824C180.088 80.7109 180.006 80.9072 179.842 81.0713C179.684 81.2295 179.49 81.3086 179.262 81.3086H169.128C168.9 81.3086 168.703 81.2324 168.539 81.0801C168.375 80.9219 168.293 80.7285 168.293 80.5ZM181.529 80.5V69.5576C181.529 69.3174 181.611 69.1152 181.776 68.9512C181.94 68.7871 182.136 68.7051 182.364 68.7051H187.277C189.82 68.7051 191.669 69.2148 192.823 70.2344C193.984 71.248 194.564 72.8418 194.564 75.0156C194.564 77.1836 193.984 78.7744 192.823 79.7881C191.669 80.8018 189.82 81.3086 187.277 81.3086H182.364C182.136 81.3086 181.94 81.2324 181.776 81.0801C181.611 80.9219 181.529 80.7285 181.529 80.5ZM184.843 78.8213H187.181C188.757 78.8213 189.829 78.5342 190.398 77.96C190.966 77.3857 191.25 76.4043 191.25 75.0156C191.25 73.6211 190.966 72.6367 190.398 72.0625C189.829 71.4824 188.757 71.1924 187.181 71.1924H184.843V78.8213Z" fill="white"/>
</svg>
