<svg width="1485" height="1517" viewBox="0 0 1485 1517" fill="none" xmlns="http://www.w3.org/2000/svg">
<path d="M0.123969 8.01838C0.113758 3.5929 3.69846 0 8.12395 0L491.804 0C493.58 0 495.305 0.590874 496.708 1.67952L565.441 55.0114C566.844 56.1 568.569 56.6909 570.345 56.6909H1476.12C1480.54 56.6909 1484.12 60.2726 1484.12 64.6909V1509C1484.12 1513.42 1480.54 1517 1476.12 1517H11.587C7.17595 1517 3.59723 1513.43 3.58705 1509.02L0.123969 8.01838Z" fill="#060509" fill-opacity="0.6"/>
<path d="M1483.62 64.6909V1509C1483.62 1513.14 1480.26 1516.5 1476.12 1516.5H11.587C7.45164 1516.5 4.09659 1513.15 4.08705 1509.02L0.623967 8.01722C0.614395 3.86835 3.97505 0.5 8.12395 0.5H491.804C493.469 0.5 495.086 1.05395 496.401 2.07455L565.134 55.4064C566.625 56.5631 568.458 57.1909 570.345 57.1909H1476.12C1480.26 57.1909 1483.62 60.5487 1483.62 64.6909Z" stroke="white" stroke-opacity="0.1"/>
<mask id="mask0_1_857" style="mask-type:alpha" maskUnits="userSpaceOnUse" x="4" y="0" width="1481" height="1517">
<path d="M4.10584 8.00002C4.10584 3.58174 7.68756 0 12.1058 0L813.226 0C815.004 0 816.732 0.592794 818.137 1.68469L888.127 56.1106C889.531 57.2025 891.259 57.7953 893.038 57.7953H1476.12C1480.54 57.7953 1484.12 61.377 1484.12 65.7953V1509C1484.12 1513.42 1480.54 1517 1476.12 1517H12.1059C7.68766 1517 4.10592 1513.42 4.10592 1509L4.10584 8.00002Z" fill="#0A0419" fill-opacity="0.6"/>
</mask>
<g mask="url(#mask0_1_857)">
<path d="M0.105523 0H1259.14V69.3582H596.287L573.883 79.0561H0.105523V0Z" fill="black" fill-opacity="0.4"/>
</g>
</svg>
