<svg width="208" height="89" viewBox="0 0 208 89" fill="none" xmlns="http://www.w3.org/2000/svg">
<path d="M85.9701 9.21884C85.3444 8.52358 84.7187 7.82832 84.0234 7.13306C79.5042 2.89198 73.3859 0.25 66.6419 0.25C59.2722 0.25 52.5977 3.44819 47.9395 8.52358C47.3137 9.21884 46.688 9.98362 46.1318 10.7484C43.2813 14.7114 41.4736 19.4391 41.265 24.6536C41.265 25.0012 41.3345 25.3488 41.3345 25.766C41.3345 26.1136 41.3345 26.5308 41.265 26.8784C41.126 29.1728 40.5002 31.2585 39.4573 33.2052C38.0668 35.8472 35.9115 38.0721 33.2695 39.5321V50.1C37.5801 48.7095 41.4041 46.2761 44.3241 43.0084C44.9499 42.3131 45.5756 41.5484 46.1318 40.7836C48.9824 36.8206 50.79 32.0928 50.9986 26.8784C50.9986 26.5308 50.9291 26.1136 50.9291 25.766C50.9291 25.4184 50.9291 25.0012 50.9986 24.6536C51.1377 22.3592 51.7634 20.2039 52.8063 18.3267C55.4483 13.3904 60.6627 10.0531 66.6419 10.0531C72.204 10.0531 77.0708 12.9037 79.8519 17.2838C81.4509 19.7172 82.3548 22.6373 82.3548 25.766C82.3548 27.3651 82.0767 28.9642 81.6595 30.4242C79.6433 36.8206 73.6641 41.4788 66.6419 41.4788C60.6627 41.4788 55.4483 38.1416 52.8063 33.2052C51.8329 36.8206 50.1643 40.0883 47.9395 43.0084C52.5977 48.0838 59.2722 51.2124 66.6419 51.2124C73.8726 51.2124 80.4081 48.1533 85.0663 43.356C86.0397 42.3827 86.874 41.2702 87.6387 40.1578C87.8473 39.8102 88.1254 39.4626 88.334 39.1149C88.8207 38.2806 89.3074 37.4463 89.655 36.612C91.1846 33.3443 92.0189 29.6594 92.0189 25.8355C92.0884 19.4391 89.794 13.6685 85.9701 9.21884Z" fill="white"/>
<path d="M25.5519 32.5795C22.8404 32.5795 20.6851 34.7348 20.6851 37.4463V37.7244V40.7141C19.7118 40.3664 18.8079 40.0188 17.9041 39.4626C13.1068 36.7511 9.83909 31.6062 9.83909 25.766C9.83909 17.0753 16.8612 10.0532 25.5519 10.0532C31.5312 10.0532 36.7456 13.3904 39.3876 18.3267C40.3609 14.7114 42.0296 11.4437 44.2544 8.52358C39.5962 3.44819 32.9217 0.25 25.5519 0.25C11.5077 0.25 0.105469 11.6522 0.105469 25.6965C0.105469 37.0292 7.61426 46.6933 17.9041 49.961C18.8079 50.2391 19.7118 50.5172 20.6851 50.6563V51.9077C20.6851 52.4639 20.7547 53.0201 20.9632 53.5763C21.6585 55.4535 23.3966 56.7745 25.5519 56.7745C27.7072 56.7745 29.4454 55.4535 30.1407 53.5763C30.3492 53.0897 30.4188 52.5335 30.4188 51.9077V50.6563V40.7141V37.7244V37.4463C30.4188 34.7348 28.2635 32.5795 25.5519 32.5795Z" fill="url(#paint0_linear_1_153)"/>
<path d="M122.126 43.0742C123.725 44.8819 123.794 47.5238 122.334 49.3315C121.987 48.4972 121.848 47.5934 121.848 46.62V42.7266C121.917 42.8656 122.056 43.0047 122.126 43.0742Z" fill="#1D1D1D"/>
<path d="M166.066 16.8667C165.927 16.1714 165.787 15.4762 165.509 14.7809C165.301 14.0856 165.092 13.4599 164.745 12.7647C164.188 11.4437 163.493 10.1922 162.728 9.07978C162.659 9.01026 162.659 8.94073 162.589 8.87121C162.103 8.17595 161.546 7.48069 160.921 6.85496C160.851 6.78543 160.851 6.78543 160.782 6.7159C157.027 2.75293 151.674 0.25 145.764 0.25C142.566 0.25 139.576 0.94526 136.934 2.26625C136.1 2.68341 135.335 3.10056 134.57 3.58724L134.501 3.65677C130.468 6.29875 127.34 10.4703 126.019 15.3371C125.532 17.0753 125.254 18.9525 125.254 20.8297V31.5366V46.6237C125.254 47.6666 125.602 48.64 126.158 49.4743C127.062 50.7258 128.452 51.4906 130.121 51.4906C132.832 51.4906 134.988 49.3353 134.988 46.6237V41.3398V38.2806C135.822 38.8368 136.726 39.254 137.63 39.6712C140.132 40.7836 142.913 41.4093 145.834 41.4093C149.727 41.4093 153.412 40.2969 156.471 38.4197C156.541 38.4197 156.61 38.3502 156.61 38.3502C157.375 37.8635 158.07 37.3768 158.765 36.8206C158.835 36.7511 158.835 36.7511 158.904 36.6815C161.477 34.5262 163.563 31.7452 164.814 28.6165C164.884 28.408 164.953 28.1994 165.092 27.9908C165.231 27.7127 165.301 27.4346 165.37 27.087C165.579 26.5308 165.718 25.905 165.857 25.3488C165.927 25.0707 165.996 24.7231 166.066 24.445C166.135 23.8888 166.274 23.3326 166.274 22.7764C166.344 22.1506 166.344 21.5249 166.344 20.8297C166.483 19.5087 166.344 18.1181 166.066 16.8667ZM156.471 22.985C156.054 24.9317 155.15 26.7394 153.829 28.1299C153.76 28.1994 153.69 28.2689 153.62 28.3384C153.273 28.7556 152.856 29.1032 152.439 29.3813C152.021 29.729 151.604 30.0071 151.187 30.2156C149.658 31.05 147.85 31.6062 145.973 31.6062C142.705 31.6062 139.785 30.1461 137.769 27.8518C136.169 25.9746 135.127 23.5412 135.127 20.8297C135.127 18.1181 136.1 15.6847 137.769 13.8075C139.715 11.5132 142.705 10.0531 145.973 10.0531C147.989 10.0531 149.866 10.6094 151.465 11.5827C153.134 12.5561 154.455 14.0161 155.359 15.6847C155.428 15.7543 155.428 15.8933 155.498 15.9628C156.262 17.4229 156.68 19.0915 156.68 20.8297C156.68 21.1078 156.68 21.3163 156.68 21.5944C156.68 21.803 156.61 22.0116 156.61 22.2202C156.61 22.2202 156.61 22.2202 156.61 22.2897C156.541 22.5678 156.541 22.7764 156.471 22.985Z" fill="white"/>
<path d="M102.857 10.0528C108.836 10.0528 113.633 14.8501 113.633 20.8293C113.633 25.0008 111.2 28.6857 107.723 30.4238C110.574 31.4667 113.981 32.9963 117.388 35.2907C119.265 33.4135 120.794 31.1191 121.837 28.6857C122.185 27.9209 122.463 27.0866 122.672 26.3218C123.158 24.5837 123.436 22.776 123.436 20.8988C123.436 19.0216 123.158 17.1444 122.672 15.4063C122.463 14.5719 122.185 13.8072 121.837 13.0424C118.778 5.60311 111.408 0.388672 102.926 0.388672C96.9469 0.388672 91.5239 2.96113 87.7695 7.06315C90.1334 9.70514 92.0106 12.7643 93.1926 16.171C94.9307 12.5557 98.6156 10.0528 102.857 10.0528Z" fill="white"/>
<path d="M121.769 42.7317C120.448 41.2716 118.988 39.9506 117.528 38.8382C116.763 38.2125 115.929 37.6563 115.164 37.1696C109.463 33.4152 103.762 31.9552 101.328 31.4685C101.328 31.4685 101.328 31.4685 101.259 31.4685C100.911 31.399 100.633 31.3294 100.424 31.3294C100.355 31.3294 100.355 31.3294 100.355 31.3294C98.7557 30.9818 97.3652 30.217 96.1137 29.2437C95.6271 28.896 95.2099 28.4093 94.7928 27.9922C94.7232 28.757 94.6537 29.5913 94.5146 30.3561C94.0975 33.0676 93.2632 35.64 92.0812 38.0734C92.0812 38.143 92.0117 38.2125 92.0117 38.282C92.0812 38.3515 92.1508 38.3515 92.2203 38.4211C92.4984 38.5601 92.707 38.6992 92.9851 38.8382C94.2365 39.5335 95.6271 40.1592 97.0871 40.5764C97.5043 40.7154 97.9909 40.8545 98.4081 40.924C98.5471 40.9935 98.6862 40.9935 98.8252 40.9935C98.8252 40.9935 98.9643 40.9935 99.1034 41.0631C99.1729 41.0631 99.1729 41.0631 99.2424 41.0631C99.3815 41.1326 99.5205 41.1326 99.6596 41.1326C101.05 41.4107 103.901 42.1755 107.168 43.7746C109.81 45.0956 112.591 46.9728 114.955 49.6147C115.929 50.6576 117.25 51.2138 118.571 51.2138C119.753 51.2138 120.865 50.7967 121.838 49.9624C122.047 49.7538 122.255 49.5452 122.395 49.3366C123.855 47.529 123.855 44.887 122.186 43.0793C122.047 43.0098 121.908 42.8707 121.769 42.7317Z" fill="white"/>
<path d="M92.0809 41.4805C91.177 41.4805 90.3427 41.689 89.5779 42.1062C88.535 42.7319 87.7703 43.6358 87.4226 44.7482C87.2836 45.2349 87.1445 45.7215 87.1445 46.2778C87.1445 48.9893 89.2998 51.1446 92.0113 51.1446C94.7229 51.1446 96.8782 48.9893 96.8782 46.2778C96.8782 44.9568 96.3219 43.7748 95.4876 42.871C94.6533 42.0367 93.4714 41.4805 92.0809 41.4805Z" fill="white"/>
<path d="M181.838 0.25C175.233 0.25 169.184 2.75293 164.665 6.92448C164.665 6.99401 164.735 6.99401 164.804 7.06353C166.89 9.84457 168.281 13.1818 168.906 16.7276C171.757 12.6256 176.485 9.9141 181.838 9.9141C190.529 9.9141 197.551 16.9362 197.551 25.6269C197.551 34.3177 190.529 41.3398 181.838 41.3398C174.955 41.3398 169.115 36.9597 167.029 30.7719C165.5 33.97 163.205 36.8206 160.424 39.0454C160.355 39.0454 160.355 39.115 160.285 39.115C164.804 46.2761 172.8 51.0734 181.838 51.0734C195.882 51.0734 207.285 39.6712 207.285 25.6269C207.285 11.6522 195.813 0.25 181.838 0.25Z" fill="white"/>
<path d="M63.0273 19.3633V31.9475L73.9429 25.6901L63.0273 19.3633Z" fill="url(#paint1_linear_1_153)"/>
<rect x="105.363" y="62.2188" width="101.094" height="26.2643" rx="3.52278" fill="url(#paint2_linear_1_153)"/>
<path d="M121.874 79.4354H118.187L113.805 69.6359H117.45L120.201 76.3722L122.144 71.2668H126.455L128.582 76.1878L131.277 69.6359H134.567L130.241 79.4354H126.88L124.597 73.6209H124.03L121.874 79.4354ZM143.525 69.4657H143.979C144.929 69.4657 145.78 69.5225 146.546 69.6501C147.311 69.7635 147.95 69.9195 148.474 70.1181C148.985 70.3166 149.439 70.5577 149.822 70.8413C150.219 71.125 150.517 71.4086 150.729 71.6922C150.956 71.9759 151.126 72.2879 151.268 72.6282C151.396 72.9686 151.495 73.2664 151.523 73.5358C151.566 73.8053 151.58 74.0747 151.58 74.3726V74.7696C151.58 75.0533 151.566 75.3369 151.523 75.6064C151.495 75.8616 151.396 76.1736 151.268 76.514C151.126 76.8543 150.956 77.1663 150.743 77.4641C150.531 77.7478 150.233 78.0314 149.836 78.3292C149.439 78.6128 148.985 78.8539 148.474 79.0667C147.964 79.2652 147.326 79.4212 146.546 79.5488C145.78 79.6765 144.929 79.7332 143.979 79.7332H143.525C142.575 79.7332 141.724 79.6765 140.944 79.5488C140.178 79.4212 139.526 79.2652 139.015 79.0667C138.505 78.8539 138.051 78.6128 137.654 78.3292C137.257 78.0314 136.959 77.7478 136.732 77.4641C136.519 77.1663 136.349 76.8543 136.221 76.514C136.08 76.1736 135.995 75.8616 135.966 75.6064C135.924 75.3369 135.909 75.0533 135.909 74.7696V74.3726C135.909 74.0747 135.924 73.8053 135.966 73.5358C135.995 73.2806 136.08 72.9686 136.221 72.6282C136.349 72.2879 136.519 71.9759 136.732 71.6922C136.959 71.4086 137.257 71.125 137.654 70.8413C138.037 70.5577 138.491 70.3166 139.001 70.1181C139.526 69.9195 140.178 69.7635 140.944 69.6501C141.724 69.5225 142.575 69.4657 143.525 69.4657ZM148.035 74.6562V74.4718C148.035 74.2166 148.006 73.9755 147.935 73.7627C147.865 73.5358 147.737 73.3089 147.538 73.0679C147.354 72.8268 147.099 72.614 146.787 72.458C146.475 72.2879 146.049 72.146 145.525 72.0326C145.085 71.9333 144.589 71.8908 144.036 71.8766C143.908 71.8624 143.653 71.8624 143.568 71.8624C140.83 71.9191 139.455 72.7842 139.455 74.4718V74.6278C139.455 74.9398 139.512 75.2518 139.639 75.5354C139.753 75.8191 139.965 76.1027 140.249 76.3863C140.547 76.67 140.986 76.8969 141.596 77.0671C142.164 77.2231 142.844 77.3081 143.624 77.3223C143.695 77.3223 143.865 77.3223 143.979 77.3223C144.702 77.294 145.34 77.2231 145.865 77.0671C146.475 76.9111 146.929 76.6842 147.226 76.4005C147.524 76.1311 147.737 75.8474 147.85 75.5638C147.978 75.2802 148.035 74.9682 148.035 74.6562ZM165.975 75.422C166.315 75.7907 166.485 76.2729 166.485 76.8685V79.5488H163.408V77.8045C163.408 77.2089 163.252 76.7692 162.94 76.4998C162.628 76.2303 162.103 76.0885 161.351 76.0885H157.352V79.5488H154.289V69.7919H162.188C165.024 69.7919 166.443 70.6428 166.443 72.3304V72.4864C166.443 73.5217 165.833 74.2307 164.627 74.6278C165.18 74.7838 165.634 75.0391 165.975 75.422ZM163.238 72.9686V72.9544C163.238 72.6708 163.138 72.4439 162.94 72.2737C162.741 72.1035 162.429 72.0042 162.004 72.0042H157.352V73.9329H162.004C162.429 73.9329 162.741 73.8337 162.94 73.6635C163.138 73.4933 163.238 73.2522 163.238 72.9686ZM169.418 69.6359H172.793V77.0954H180.324V79.563H169.418V69.6359ZM182.774 69.6075H189.95C190.957 69.6075 191.879 69.6643 192.687 69.7919C193.509 69.9195 194.19 70.0897 194.729 70.3308C195.282 70.5719 195.75 70.8272 196.133 71.125C196.516 71.4086 196.814 71.7348 197.027 72.1035C197.225 72.4722 197.381 72.8268 197.466 73.1813C197.565 73.5358 197.608 73.9046 197.608 74.3016V74.7129C197.608 75.1809 197.551 75.6205 197.424 76.0318C197.31 76.4572 197.083 76.8827 196.743 77.3223C196.388 77.7761 195.949 78.159 195.41 78.471C194.857 78.783 194.119 79.0383 193.183 79.2368C192.262 79.4496 191.184 79.5488 189.964 79.5488H182.774V69.6075ZM186.163 71.9475V77.1521H189.695C192.602 77.1521 194.048 76.3012 194.048 74.5853V74.5144C194.048 72.7984 192.602 71.9475 189.695 71.9475H186.163Z" fill="white"/>
<defs>
<linearGradient id="paint0_linear_1_153" x1="22.1799" y1="0.25" x2="22.1799" y2="56.7745" gradientUnits="userSpaceOnUse">
<stop stop-color="#915FFF"/>
<stop offset="1" stop-color="#702FFF"/>
</linearGradient>
<linearGradient id="paint1_linear_1_153" x1="68.4851" y1="19.3633" x2="68.4851" y2="31.9475" gradientUnits="userSpaceOnUse">
<stop stop-color="#915FFF"/>
<stop offset="1" stop-color="#702FFF"/>
</linearGradient>
<linearGradient id="paint2_linear_1_153" x1="155.91" y1="62.2188" x2="155.91" y2="88.4831" gradientUnits="userSpaceOnUse">
<stop stop-color="#915FFF"/>
<stop offset="1" stop-color="#702FFF"/>
</linearGradient>
</defs>
</svg>
